<svg width="128px" height="128px" xmlns="http://www.w3.org/2000/svg">
  <style>
    .wordmark { fill: #fff; }
    .canvas { fill: #e5001f; }
    @media (prefers-color-scheme: dark) {
      .wordmark { fill: #e5001f; }
      .canvas { fill: #fff; }
    }
  </style>
  <path class="canvas" d="M16 0 C7.164 0 0 7.164 0 16 L0 112 C0 120.836 7.164 128 16 128 L112 128 C120.836 128 128 120.836 128 112 L128 16 C128 7.164 120.836 0 112 0 Z"/>
  <path class="wordmark" d="M22.375 100.735 C20.555 100.735 18.811 100.39 17.142 99.702 15.474 99.013 14.004 98.046 12.732 96.798 11.46 95.549 10.44 94.067 9.67 92.352 8.9 90.637 8.515 88.765 8.515 86.735 8.515 84.705 8.894 82.845 9.652 81.153 10.41 79.461 11.425 78.003 12.697 76.778 13.969 75.553 15.445 74.595 17.125 73.907 18.805 73.219 20.567 72.876 22.41 72.876 23.46 72.876 24.493 72.986 25.507 73.208 26.522 73.429 27.591 73.774 28.711 74.241 L28.711 82.43 C27.124 80.494 25.163 79.524 22.83 79.524 21.803 79.524 20.853 79.711 19.978 80.085 19.103 80.458 18.35 80.966 17.72 81.608 17.09 82.25 16.594 83.012 16.232 83.899 15.87 84.786 15.689 85.743 15.689 86.77 15.689 87.82 15.87 88.788 16.232 89.674 16.594 90.561 17.096 91.332 17.738 91.985 18.38 92.638 19.132 93.151 19.996 93.524 20.859 93.897 21.791 94.085 22.795 94.085 24.988 94.085 26.961 93.152 28.711 91.286 L28.711 99.405 28.009 99.649 C26.959 100.022 25.98 100.298 25.07 100.473 24.16 100.648 23.261 100.735 22.375 100.735 Z M31.72 100.001 L31.72 73.61 38.58 73.61 38.58 83.796 48.484 83.796 48.484 73.61 55.345 73.61 55.345 100.001 48.484 100.001 48.484 89.116 38.58 89.116 38.58 100.001 31.72 100.001 Z M58.425 100.001 L58.425 73.61 73.439 73.61 73.439 79.421 65.285 79.421 65.285 83.831 72.984 83.831 72.984 89.639 65.285 89.639 65.285 94.19 73.439 94.19 73.439 99.913 83.451 73.61 90.939 73.61 100.984 100.001 93.67 100.001 92.095 95.415 82.295 95.415 80.72 100.001 73.439 100.001 73.406 100.001 58.425 100.001 Z M101.545 100.001 L101.545 73.61 112.465 73.61 C115.428 73.61 117.698 74.381 119.273 75.921 120.848 77.461 121.634 79.63 121.634 82.43 121.634 85.23 120.848 87.4 119.273 88.94 117.698 90.48 115.428 91.251 112.465 91.251 L108.406 91.251 108.406 100.001 101.545 100.001 Z M84.115 90.2 L90.275 90.2 87.195 81.415 84.115 90.2 Z M108.406 85.719 L110.679 85.719 C113.199 85.719 114.461 84.624 114.461 82.43 114.461 80.237 113.199 79.139 110.679 79.139 L108.406 79.139 108.406 85.719 Z M53.263 67.501 L55.845 60.714 57.771 60.714 60.355 67.501 58.474 67.501 58.068 66.321 55.549 66.321 55.144 67.501 53.263 67.501 Z M60.498 67.501 L60.498 60.714 62.263 60.714 65.521 64.864 65.521 60.714 67.275 60.714 67.275 67.501 65.521 67.501 62.263 63.35 62.263 67.501 60.498 67.501 Z M68.068 67.501 L68.068 60.714 70.677 60.714 C71.139 60.714 71.573 60.807 71.978 60.993 72.383 61.179 72.738 61.426 73.041 61.735 73.344 62.044 73.582 62.404 73.756 62.815 73.93 63.226 74.017 63.656 74.017 64.106 74.017 64.55 73.93 64.978 73.759 65.389 73.588 65.8 73.352 66.161 73.049 66.473 72.746 66.785 72.393 67.035 71.988 67.221 71.583 67.407 71.145 67.501 70.677 67.501 L68.068 67.501 Z M69.832 66.006 L70.236 66.006 C70.542 66.006 70.816 65.958 71.056 65.862 71.296 65.766 71.499 65.633 71.664 65.465 71.829 65.297 71.954 65.099 72.041 64.868 72.128 64.637 72.172 64.382 72.172 64.106 72.172 63.836 72.127 63.584 72.037 63.35 71.947 63.116 71.819 62.917 71.654 62.749 71.489 62.581 71.287 62.448 71.047 62.352 70.807 62.256 70.536 62.208 70.236 62.208 L69.832 62.208 69.832 66.006 Z M56.017 64.979 L57.601 64.979 56.808 62.721 56.017 64.979 Z M22.269 56.735 C20.216 56.735 18.344 56.396 16.652 55.719 14.96 55.043 13.508 54.093 12.295 52.868 11.081 51.643 10.137 50.173 9.461 48.458 8.784 46.743 8.445 44.847 8.445 42.77 8.445 40.717 8.778 38.833 9.443 37.118 10.108 35.403 11.052 33.939 12.277 32.725 13.502 31.512 14.978 30.566 16.705 29.889 18.431 29.213 20.357 28.876 22.48 28.876 25.234 28.876 27.648 29.471 29.724 30.661 31.801 31.851 33.447 33.693 34.66 36.19 L28.15 38.885 C27.543 37.439 26.755 36.4 25.787 35.77 24.818 35.14 23.717 34.825 22.48 34.825 21.453 34.825 20.519 35.018 19.679 35.403 18.839 35.788 18.122 36.336 17.527 37.048 16.932 37.759 16.465 38.616 16.127 39.62 15.788 40.623 15.621 41.742 15.621 42.979 15.621 44.099 15.767 45.138 16.058 46.094 16.35 47.051 16.787 47.881 17.371 48.581 17.954 49.281 18.677 49.823 19.541 50.208 20.404 50.593 21.407 50.786 22.55 50.786 23.227 50.786 23.879 50.709 24.509 50.557 25.139 50.406 25.705 50.161 26.207 49.823 26.708 49.485 27.124 49.047 27.451 48.51 27.778 47.974 27.998 47.319 28.115 46.549 L22.48 46.549 22.48 41.229 36.095 41.229 C36.095 42.629 36.036 43.902 35.92 45.046 35.803 46.189 35.57 47.249 35.22 48.229 34.73 49.606 34.064 50.826 33.224 51.887 32.384 52.949 31.399 53.836 30.267 54.548 29.136 55.259 27.894 55.801 26.541 56.174 25.187 56.548 23.763 56.735 22.269 56.735 Z M51.39 56.735 C49.244 56.735 47.277 56.378 45.492 55.667 43.707 54.955 42.174 53.97 40.89 52.71 39.607 51.45 38.604 49.974 37.881 48.282 37.157 46.59 36.795 44.765 36.795 42.805 36.795 40.845 37.157 39.018 37.881 37.327 38.604 35.635 39.607 34.159 40.89 32.899 42.174 31.639 43.707 30.654 45.492 29.942 47.277 29.23 49.244 28.876 51.39 28.876 53.514 28.876 55.473 29.23 57.269 29.942 59.066 30.654 60.613 31.639 61.908 32.899 63.203 34.159 64.212 35.635 64.935 37.327 65.659 39.018 66.019 40.845 66.019 42.805 66.019 44.765 65.659 46.59 64.935 48.282 64.212 49.974 63.203 51.45 61.908 52.71 60.613 53.97 59.066 54.955 57.269 55.667 55.473 56.378 53.514 56.735 51.39 56.735 Z M81.314 56.735 C79.167 56.735 77.203 56.378 75.418 55.667 73.633 54.955 72.097 53.97 70.814 52.71 69.531 51.45 68.528 49.974 67.804 48.282 67.081 46.59 66.72 44.765 66.72 42.805 66.72 40.845 67.081 39.018 67.804 37.327 68.528 35.635 69.531 34.159 70.814 32.899 72.097 31.639 73.633 30.654 75.418 29.942 77.203 29.23 79.167 28.876 81.314 28.876 83.437 28.876 85.398 29.23 87.195 29.942 88.992 30.654 90.537 31.639 91.832 32.899 93.127 34.159 94.136 35.635 94.859 37.327 95.582 39.018 95.945 40.845 95.945 42.805 95.945 44.765 95.582 46.59 94.859 48.282 94.136 49.974 93.127 51.45 91.832 52.71 90.537 53.97 88.992 54.955 87.195 55.667 85.398 56.378 83.437 56.735 81.314 56.735 Z M97.836 56.001 L97.836 29.61 107.984 29.61 C109.781 29.61 111.468 29.973 113.043 30.696 114.618 31.419 115.993 32.381 117.172 33.583 118.35 34.784 119.278 36.184 119.955 37.782 120.631 39.38 120.97 41.055 120.97 42.805 120.97 44.532 120.637 46.193 119.972 47.792 119.307 49.39 118.385 50.797 117.207 52.01 116.028 53.224 114.653 54.191 113.078 54.915 111.503 55.638 109.804 56.001 107.984 56.001 L97.836 56.001 Z M104.695 50.19 L106.269 50.19 C107.459 50.19 108.521 50.003 109.455 49.63 110.388 49.256 111.176 48.744 111.818 48.09 112.46 47.437 112.948 46.661 113.287 45.762 113.625 44.864 113.795 43.879 113.795 42.805 113.795 41.755 113.619 40.776 113.269 39.866 112.919 38.956 112.425 38.174 111.783 37.52 111.141 36.867 110.353 36.352 109.42 35.979 108.486 35.606 107.436 35.421 106.269 35.421 L104.695 35.421 104.695 50.19 Z M51.39 50.085 C52.394 50.085 53.344 49.903 54.242 49.542 55.14 49.18 55.934 48.674 56.623 48.02 57.311 47.367 57.853 46.596 58.25 45.71 58.646 44.823 58.845 43.855 58.845 42.805 58.845 41.755 58.646 40.786 58.25 39.899 57.853 39.012 57.311 38.244 56.623 37.59 55.934 36.937 55.14 36.429 54.242 36.067 53.344 35.705 52.394 35.524 51.39 35.524 50.387 35.524 49.435 35.705 48.537 36.067 47.638 36.429 46.852 36.937 46.175 37.59 45.499 38.244 44.961 39.012 44.564 39.899 44.167 40.786 43.97 41.755 43.97 42.805 43.97 43.855 44.167 44.823 44.564 45.71 44.961 46.596 45.499 47.367 46.175 48.02 46.852 48.674 47.638 49.18 48.537 49.542 49.435 49.903 50.387 50.085 51.39 50.085 Z M81.314 50.085 C82.317 50.085 83.269 49.903 84.168 49.542 85.066 49.18 85.858 48.674 86.547 48.02 87.235 47.367 87.779 46.596 88.175 45.71 88.572 44.823 88.769 43.855 88.769 42.805 88.769 41.755 88.572 40.786 88.175 39.899 87.779 39.012 87.235 38.244 86.547 37.59 85.858 36.937 85.066 36.429 84.168 36.067 83.269 35.705 82.317 35.524 81.314 35.524 80.311 35.524 79.361 35.705 78.463 36.067 77.564 36.429 76.776 36.937 76.099 37.59 75.423 38.244 74.887 39.012 74.49 39.899 74.093 40.786 73.894 41.755 73.894 42.805 73.894 43.855 74.093 44.823 74.49 45.71 74.887 46.596 75.423 47.367 76.099 48.02 76.776 48.674 77.564 49.18 78.463 49.542 79.361 49.903 80.311 50.085 81.314 50.085 Z"/>
</svg>
